# xmcd CD database file
#
# Track frame offsets:
#	150
#	9262
#	23747
#	36332
#	46595
#	57340
#	71440
#	83025
#	94172
#	108500
#	119742
#	134557
#	146940
#	158460
#	169035
#	182770
#	195960
#	208777
#	219337
#	232050
#
# Disc length: 3267 seconds
#
# Revision: 3
# Processed by: cddbd v1.5.2PL0 Copyright (c) Steve Scherf et al.
# Submitted via: CDex 1.75
#
DISCID=150cc114
DTITLE=Frankie Laine - I Believe
DYEAR=1996
DGENRE=Country
TTITLE0=Rawhide
TTITLE1=Jealousy
TTITLE2=Moonlight Gambler
TTITLE3=I Believe
TTITLE4=Humming Bird
TTITLE5=Don't Fence Me
TTITLE6=Strange Lady In Town
TTITLE7=Rose, Rose I Love You
TTITLE8=There Must Be A Reason
TTITLE9=Answer Me 
TTITLE10=Jezebel
TTITLE11=High Noon (Do Not Forsake Me)
TTITLE12=Mule Train
TTITLE13=Sixteen Tons
TTITLE14=Cool Water
TTITLE15=Wheel Of Fortune
TTITLE16=Rain, Rain, Rain
TTITLE17=Woman In Love
TTITLE18=Granada
TTITLE19=Cry Of The Wild Goose
EXTD=YEAR: 1996
EXTT0=
EXTT1=
EXTT2=
EXTT3=
EXTT4=
EXTT5=
EXTT6=
EXTT7=
EXTT8=
EXTT9=
EXTT10=
EXTT11=
EXTT12=
EXTT13=
EXTT14=
EXTT15=
EXTT16=
EXTT17=
EXTT18=
EXTT19=
PLAYORDER=
